<?xml version="1.0" encoding="UTF-8" standalone="no"?>
<!-- Created with Inkscape (http://www.inkscape.org/) -->

<svg
   xmlns:dc="http://purl.org/dc/elements/1.1/"
   xmlns:cc="http://creativecommons.org/ns#"
   xmlns:rdf="http://www.w3.org/1999/02/22-rdf-syntax-ns#"
   xmlns:svg="http://www.w3.org/2000/svg"
   xmlns="http://www.w3.org/2000/svg"
   xmlns:sodipodi="http://sodipodi.sourceforge.net/DTD/sodipodi-0.dtd"
   xmlns:inkscape="http://www.inkscape.org/namespaces/inkscape"
   width="800px"
   height="600px"
   viewBox="0 0 800 600"
   version="1.1"
   id="SVGRoot"
   inkscape:version="0.92.4 (5da689c313, 2019-01-14)"
   sodipodi:docname="minavbar.svg">
  <defs
     id="defs3745" />
  <sodipodi:namedview
     id="base"
     pagecolor="#ffffff"
     bordercolor="#666666"
     borderopacity="1.0"
     inkscape:pageopacity="0.0"
     inkscape:pageshadow="2"
     inkscape:zoom="16"
     inkscape:cx="47.72407"
     inkscape:cy="518.35863"
     inkscape:document-units="px"
     inkscape:current-layer="layer1"
     showgrid="false"
     inkscape:window-width="1920"
     inkscape:window-height="986"
     inkscape:window-x="-11"
     inkscape:window-y="-11"
     inkscape:window-maximized="1" />
  <metadata
     id="metadata3748">
    <rdf:RDF>
      <cc:Work
         rdf:about="">
        <dc:format>image/svg+xml</dc:format>
        <dc:type
           rdf:resource="http://purl.org/dc/dcmitype/StillImage" />
        <dc:title></dc:title>
      </cc:Work>
    </rdf:RDF>
  </metadata>
  <g
     inkscape:label="Ebene 1"
     inkscape:groupmode="layer"
     id="layer1">
    <path
       style="fill:#3358f7;fill-opacity:1;stroke-width:0.99999994"
       d="m 601.80229,265.31155 c -1.9983,1.79861 -13.5997,-0.0742 -5.61784,-0.65653 1.761,0.0527 4.27962,-0.24868 5.61784,0.65653 z"
       id="path4575"
       inkscape:connector-curvature="0" />
    <path
       style="fill:none;stroke:#000000;stroke-width:0.99999994px;stroke-linecap:butt;stroke-linejoin:miter;stroke-opacity:1"
       d=""
       id="path4583"
       inkscape:connector-curvature="0" />
    <path
       style="fill:none;stroke:#000000;stroke-width:1px;stroke-linecap:butt;stroke-linejoin:miter;stroke-opacity:1"
       d="m -36.370349,131.81745 v 0 c 0,0 0,0 0,0 z"
       id="path4598"
       inkscape:connector-curvature="0" />
    <path
       style="fill:none;stroke:#000000;stroke-width:1px;stroke-linecap:butt;stroke-linejoin:miter;stroke-opacity:1"
       d="M 821.55402,72.698855 Z"
       id="path4602"
       inkscape:connector-curvature="0" />
    <path
       style="fill:none;stroke:#000000;stroke-width:1px;stroke-linecap:butt;stroke-linejoin:miter;stroke-opacity:1"
       d="m 503.76092,20.125675 c 0,0 0,0 0,0 z"
       id="path4612"
       inkscape:connector-curvature="0" />
    <path
       style="fill:#0097ff;fill-opacity:1;stroke-width:1;stroke-miterlimit:4;stroke-dasharray:none"
       d="M 87.280388,85.843665 C 67.582716,84.236636 46.568078,79.82628 27.645139,73.32796 8.1732576,66.64113 -16.941625,52.751547 -31.832159,40.434522 L -37.6191,35.647726 -26.369588,-4.5015594 c 6.187232,-22.0821076 11.337893,-40.2125236 11.445913,-40.2898116 0.108021,-0.07729 163.506745,-0.723053 363.108275,-1.435033 199.60153,-0.711979 382.71931,-1.507202 406.92842,-1.767161 l 44.01646,-0.472652 7.77204,6.26736 c 20.90726,16.859682 38.27249,38.316798 45.30153,55.97625 4.50426,11.316336 5.72341,24.609451 3.22799,35.197195 -1.64923,6.997537 -5.89714,15.511638 -10.03591,20.114946 -9.10724,10.129486 -21.44742,11.230581 -48.37682,4.316588 C 728.79207,55.889366 717.83326,53.944229 682.80873,53.134406 648.36114,52.33793 624.74732,55.327523 572.99379,67.037359 518.90401,79.275807 496.03498,82.731505 469.17787,82.724804 c -19.93739,-0.0047 -35.06714,-2.0429 -81.9642,-11.040321 -31.76,-6.09331 -44.85914,-8.291206 -57.86125,-9.7085 -41.55863,-4.530122 -80.95218,-0.566174 -151.44215,15.238759 -19.86971,4.455091 -24.4416,5.302673 -38.27206,7.09523 -13.94251,1.807081 -39.743186,2.562848 -52.357822,1.533693 z"
       id="path4616"
       inkscape:connector-curvature="0" />
    <path
       style="fill:#424edb;fill-opacity:1;stroke-width:1;stroke-miterlimit:4;stroke-dasharray:none;stroke:#424edb;stroke-opacity:1"
       d="M 85.745039,85.485147 C 69.931027,84.179182 48.75969,79.832228 31.873628,74.424119 9.1972749,67.16155 -15.570618,53.518574 -35.17873,37.489451 l -2.247011,-1.836875 10.255892,-36.45089712 C -21.529107,-20.846314 -16.441906,-38.838182 -15.864956,-40.780251 l 1.049,-3.531034 87.849397,-0.506224 c 48.317169,-0.278423 200.136289,-0.931303 337.375829,-1.450844 137.23954,-0.519541 280.77609,-1.195002 318.97012,-1.501024 l 69.44367,-0.556404 7.45111,5.93062 c 21.4836,17.099617 40.78887,41.50203867 46.59381,58.896136 6.85162,20.530383 3.4448,40.973778 -8.90166,53.415998 -9.67645,9.751477 -20.05149,10.022394 -54.16701,1.414454 C 725.2443,55.043079 713.54995,53.203959 674.45218,53.19124 640.7022,53.180254 626.30771,55.123014 573.2292,66.852812 515.64488,79.578338 498.8153,82.030383 469.25985,82.000989 445.46137,81.977292 440.64828,81.395385 397.06981,73.272743 340.97313,62.816816 331.68131,61.442655 310.75563,60.507763 275.4253,58.92932 243.26535,62.875211 180.10736,76.537765 c -27.55431,5.960645 -40.43431,7.927462 -58.85057,8.986663 -15.48106,0.890385 -24.373526,0.880546 -35.511751,-0.03931 z"
       id="path4620"
       inkscape:connector-curvature="0" />
    <path
       style="fill:#424edb;fill-opacity:1;stroke:none;stroke-width:1;stroke-miterlimit:4;stroke-dasharray:none;stroke-opacity:1"
       d="M 84.141691,85.793234 C 63.315445,83.640495 35.276526,76.905424 19.098434,70.169567 1.0516594,62.655675 -14.541283,53.652377 -31.026914,41.227397 c -6.09232,-4.591695 -6.831588,-5.413516 -6.431508,-7.149718 0.248621,-1.078927 5.297668,-19.079032 11.220104,-40.0002326 l 10.768066,-38.0385474 3.117849,-0.50793 c 1.714817,-0.279362 59.084745,-0.734607 127.488733,-1.011655 68.40398,-0.277049 208.58605,-0.839748 311.5157,-1.250443 102.92966,-0.410695 206.56552,-0.936685 230.30192,-1.168866 23.73639,-0.232181 65.52547,-0.435347 92.86455,-0.45148 l 49.70755,-0.02933 7.25675,5.896742 c 9.9871,8.115337 26.46369,25.308606 32.60793,34.0262032 12.62258,17.9093393 17.26534,30.3127918 17.24329,46.0665778 -0.0227,16.432422 -8.42559,32.447798 -19.98965,38.10056 -3.43421,1.678732 -4.95051,1.910917 -12.16246,1.862385 -10.08149,-0.0678 -15.45761,-1.083611 -47.86513,-9.043787 C 721.34522,54.951664 708.05241,53.168955 667.74399,53.926864 637.37937,54.497801 624.65421,56.23598 580.36666,65.862082 513.25478,80.449162 490.32833,83.581747 459.60835,82.36208 443.0369,81.704147 431.26953,80.014884 386.2413,71.82986 333.2094,62.189963 321.82555,60.776106 297.18077,60.768643 c -29.095,-0.0088 -53.95097,3.335015 -110.31958,14.841095 -16.87133,3.44381 -35.58581,6.972208 -41.58774,7.840874 -19.63784,2.842224 -46.383264,3.867134 -61.131759,2.342622 z"
       id="path4622"
       inkscape:connector-curvature="0" />
    <path
       style="fill:none;fill-opacity:1;stroke:none;stroke-width:1;stroke-miterlimit:4;stroke-dasharray:none;stroke-opacity:1"
       d="M 77.482136,85.418363 C 61.390937,83.353399 37.352144,77.493741 22.827281,72.095778 12.556648,68.27884 -5.9184629,58.80757 -16.437063,51.966889 c -10.91048,-7.095528 -21.438104,-15.309891 -21.438104,-16.72746 0,-1.832819 21.88762,-79.075116 22.612329,-79.799825 0.674257,-0.674257 139.552178,-1.452721 522.343988,-2.927938 113.50314,-0.437422 225.61882,-1.016964 249.14595,-1.287871 l 42.7766,-0.492557 6.65788,5.294668 c 8.3505,6.640703 24.28214,22.747662 30.87144,31.211118 9.93429,12.75975674 16.12859,24.291805 18.57018,34.572418 1.82358,7.67801 2.16084,20.286887 0.72692,27.17705 -2.41679,11.61358 -11.74288,24.299967 -20.22388,27.510862 -3.91701,1.482987 -5.54357,1.637984 -13.47835,1.284394 C 812.43881,77.349981 805.42484,76.05264 783.28651,70.597482 722.12282,55.525975 712.27972,54.12355 671.86276,54.722131 c -29.23197,0.432921 -31.10867,0.539558 -45.51111,2.586044 -10.79144,1.533379 -16.44482,2.651336 -57.28123,11.327401 -58.94881,12.524211 -74.09725,14.5201 -105.29512,13.873191 -22.68186,-0.470318 -25.54997,-0.830193 -66.94089,-8.399389 -41.86675,-7.656209 -68.08578,-11.688634 -79.64445,-12.249127 -4.74728,-0.2302 -10.57348,-0.519062 -12.94712,-0.641903 -7.88437,-0.408054 -36.34295,0.983464 -46.29579,2.263699 -15.7246,2.022647 -46.21894,7.501141 -82.78314,14.87249 -23.22183,4.681524 -33.5875,6.304654 -47.86513,7.49506 -12.9432,1.079147 -39.862925,0.846114 -49.816644,-0.431234 z"
       id="path4624"
       inkscape:connector-curvature="0" />
  </g>
</svg>
